<?xml version="1.0" standalone="no"?>
<!DOCTYPE svg PUBLIC "-//W3C//DTD SVG 20010904//EN"
 "http://www.w3.org/TR/2001/REC-SVG-20010904/DTD/svg10.dtd">
<svg version="1.0" xmlns="http://www.w3.org/2000/svg"
 width="1280.000000pt" height="640.000000pt" viewBox="0 0 1280.000000 640.000000"
 preserveAspectRatio="xMidYMid meet">
<metadata>
Created by potrace 1.15, written by Peter Selinger 2001-2017
</metadata>
<g transform="translate(0.000000,640.000000) scale(0.100000,-0.100000)"
fill="#000000" stroke="none">
<path d="M8433 5748 c3 -7 55 -138 116 -291 61 -152 111 -281 111 -287 0 -8
-959 -1240 -994 -1278 -8 -8 -402 -48 -1251 -127 -1486 -137 -1478 -136 -1826
-136 -293 0 -394 7 -716 47 -218 27 -319 49 -428 95 -110 46 -103 31 -77 166
13 65 26 128 29 141 5 22 5 22 -125 22 l-131 0 -38 -55 c-21 -30 -41 -55 -44
-55 -10 0 -223 174 -384 314 -285 247 -794 713 -1097 1004 -64 61 -124 112
-133 112 -22 0 -407 -89 -414 -96 -3 -3 -1 -13 5 -22 30 -49 1154 -2061 1160
-2075 5 -13 0 -17 -17 -17 -41 0 -99 -20 -99 -34 0 -7 9 -42 20 -76 11 -34 20
-64 20 -65 0 -8 -130 -43 -535 -145 -768 -194 -1376 -354 -1480 -390 -99 -34
-128 -78 -86 -132 33 -41 86 -56 251 -71 l155 -14 245 59 c368 89 474 115
1118 272 l592 145 53 -23 c187 -83 873 -325 1207 -425 149 -45 152 -46 630
-99 306 -34 356 -37 580 -35 135 1 274 4 310 7 84 7 74 3 -190 -83 -250 -81
-1036 -337 -1387 -452 -134 -43 -353 -115 -488 -159 -135 -44 -355 -116 -490
-160 -135 -44 -354 -116 -487 -159 -134 -44 -301 -98 -371 -121 l-128 -42 -32
25 c-18 14 -104 82 -192 151 -136 107 -165 126 -195 126 -40 0 -393 -30 -397
-34 -2 -1 71 -68 160 -149 178 -159 281 -263 347 -351 81 -107 155 -131 405
-130 166 0 173 1 290 36 66 20 305 91 530 158 226 67 583 173 795 236 212 64
552 165 755 226 298 89 1882 564 2040 612 39 12 41 12 91 -31 53 -44 74 -53
74 -30 0 37 85 76 164 77 l29 0 -46 -48 c-72 -78 -94 -135 -62 -162 14 -12 34
-11 96 5 21 5 27 -1 48 -45 30 -64 106 -133 174 -158 61 -23 368 -48 455 -37
30 4 170 10 311 15 165 5 268 12 291 21 61 22 209 120 244 160 41 48 96 176
105 244 8 59 0 110 -35 223 -30 101 -80 158 -162 187 -29 11 -52 22 -52 25 0
3 75 13 168 23 92 9 298 30 457 47 160 16 477 43 705 60 954 69 2031 170 2470
231 336 46 560 131 847 321 170 113 274 213 293 281 17 61 8 112 -28 156 -40
50 -195 153 -360 239 -77 40 -146 79 -153 88 -46 56 -243 137 -479 197 -462
118 -553 131 -895 123 -351 -7 -1125 -58 -1795 -116 -124 -11 -237 -20 -252
-20 -27 0 -27 1 -14 33 8 17 103 281 211 586 173 483 196 557 185 574 -7 11
-106 146 -221 299 l-209 278 -176 0 c-137 0 -175 -3 -171 -12z"/>
</g>
</svg>
